<svg width="80" height="93" viewBox="0 0 80 93" fill="none" xmlns="http://www.w3.org/2000/svg">
<path fill-rule="evenodd" clip-rule="evenodd" d="M53.7082 66.1833C61.1675 63.2925 67.1515 57.7349 69.8972 50.1912C75.3978 35.0782 65.8176 17.7167 48.4994 11.4133C31.1809 5.10989 12.6823 12.2516 7.18163 27.3646C6.25427 29.9125 5.75554 32.5244 5.65027 35.1363C5.85768 33.131 6.30924 31.1341 7.02192 29.1758C12.3566 14.5191 30.302 7.59499 47.1044 13.7105C63.9066 19.826 73.2031 36.6653 67.8684 51.3222C65.3978 58.1101 60.2222 63.2396 53.7082 66.1833Z" fill="#17223B"/>
<path d="M25.1728 66.1978C23.0207 66.1978 21.9446 64.9108 21.9446 62.3367C21.9446 59.7204 23.8013 56.5134 27.5147 52.7156C27.8101 52.4202 28.0211 52.1881 28.1477 52.0193L28.5908 51.3864C29.1816 50.5846 29.4558 50.0782 29.4136 49.8673L29.2238 49.2976C29.055 48.7912 28.3587 48.4325 27.135 48.2215C25.9112 47.9684 24.9196 47.8418 24.16 47.8418C20.3622 53.2009 18.1679 56.2602 17.5772 57.0198C16.9864 57.7793 16.5855 58.0958 16.3745 57.9692C16.1635 57.8426 16.058 57.6949 16.058 57.5262C16.058 57.3574 16.1846 57.1042 16.4378 56.7666C18.7165 53.9815 20.6787 51.0066 22.3244 47.8418C21.818 47.7574 21.4383 47.5886 21.1851 47.3354C20.9319 47.04 20.9108 46.5758 21.1218 45.9429C21.3328 45.2677 21.9657 44.3815 23.0207 43.2844C24.1178 42.1873 25.0673 41.4488 25.869 41.069C26.6708 40.6892 27.1772 40.4571 27.3882 40.3727C27.5991 40.2884 27.8312 40.2462 28.0844 40.2462C28.5908 40.2462 28.422 41.0057 27.578 42.5248L25.1095 46.4492C27.0084 46.5758 28.633 46.6391 29.9833 46.6391L32.1987 46.5758C32.9161 46.5758 33.4435 46.6813 33.7811 46.8923C34.1187 47.0611 34.2031 47.3776 34.0343 47.8418C33.7389 48.6435 33.0005 49.7196 31.8189 51.0699C29.2871 54.0237 27.3882 57.1675 26.1222 60.5011C25.8268 61.3029 25.6791 61.9991 25.6791 62.5899C25.6791 63.8136 26.1222 64.4255 27.0084 64.4255C27.3038 64.4255 27.8523 64.1934 28.6541 63.7292C29.498 63.2651 30.8906 62.1679 32.8317 60.4378C34.7728 58.6655 36.3341 56.9354 37.5156 55.2475C37.6844 55.0365 37.8743 54.9943 38.0853 55.1209C38.3385 55.2053 38.4651 55.3108 38.4651 55.4374C38.4651 55.5218 38.4229 55.6273 38.3385 55.7538C37.7055 56.8932 36.5662 58.349 34.9205 60.1213C33.2747 61.8936 31.6712 63.3284 30.1099 64.4255C28.5908 65.607 26.9451 66.1978 25.1728 66.1978ZM58.4941 27.5868C59.2537 27.2914 59.9077 27.1437 60.4563 27.1437C62.313 27.1437 63.5367 27.6501 64.1275 28.6629C64.4651 29.1692 64.6339 29.6123 64.6339 29.9921C64.6339 32.8615 62.2286 36.4695 57.4181 40.8158C53.1561 44.5714 49.2317 47.7996 45.6449 50.5002C44.4633 53.1587 43.2396 56.429 41.9736 60.3112C43.4928 58.4545 45.4128 56.3024 47.7337 53.8549C52.4176 49.0022 55.6879 46.5758 57.5446 46.5758C58.473 46.5758 58.9583 47.04 59.0005 47.9684C59.0849 48.9389 58.8739 49.8673 58.3675 50.7534C57.9033 51.6396 57.4602 52.4624 57.0383 53.222C55.055 56.5134 54.0633 59.4462 54.0633 62.0202C54.0633 62.8642 54.2321 63.476 54.5697 63.8558C55.1605 64.531 56.0044 64.5732 57.1016 63.9824C58.1987 63.3916 59.7178 62.2101 61.6589 60.4378C63.6422 58.6655 65.2457 56.9354 66.4695 55.2475C66.6805 55.0365 66.8704 54.9943 67.0392 55.1209C67.2501 55.2053 67.3556 55.3108 67.3556 55.4374C67.3556 55.5218 67.3134 55.6273 67.229 55.7538C66.5961 56.8932 65.4567 58.349 63.811 60.1213C62.1653 61.8514 60.8361 63.0963 59.8233 63.8558C57.8822 65.3327 56.0255 66.0712 54.2532 66.0712C52.6497 66.0712 51.5737 65.2694 51.0251 63.6659C50.8985 63.2862 50.8352 62.8431 50.8352 62.3367C50.8352 61.7881 50.8774 61.2185 50.9618 60.6277C51.1728 58.8554 52.291 56.0914 54.3165 52.3358C54.7385 51.5763 54.9495 51.0488 54.9495 50.7534C54.9495 50.4158 54.7807 50.247 54.4431 50.247C53.7679 50.247 52.4598 51.091 50.5187 52.7789C49.2106 54.0026 47.2695 56.3235 44.6954 59.7415C42.1635 63.1174 40.7288 64.9108 40.3912 65.1218C38.8721 65.8813 37.9227 66.2611 37.5429 66.2611C37.2053 66.2611 37.0154 66.1978 36.9732 66.0712C36.931 65.9868 36.9521 65.8602 37.0365 65.6914C37.1209 65.5226 37.4585 64.5943 38.0493 62.9064C40.0325 57.2941 41.3829 53.5807 42.1002 51.7662C40.7077 53.5385 38.9776 55.5429 36.9099 57.7793C36.5723 58.1169 36.4035 58.0536 36.4035 57.5895C36.4035 57.0831 36.5934 56.5767 36.9732 56.0703C37.353 55.564 38.1336 54.5934 39.3152 53.1587C40.5389 51.6818 41.404 50.5846 41.9104 49.8673C41.5306 49.6563 41.3196 49.3609 41.2774 48.9811C41.2774 48.6013 41.404 48.3481 41.6572 48.2215C41.9525 48.0527 42.4167 48.0949 43.0497 48.3481C43.4717 47.7574 43.8515 47.1033 44.189 46.3859C49.2106 35.5833 53.9789 29.3169 58.4941 27.5868ZM62.0387 32.3341C62.5873 31.3213 62.8616 30.4774 62.8616 29.8022C62.8616 29.0848 62.5451 28.7262 61.9121 28.7262C61.3214 28.7262 60.5196 29.1059 59.5068 29.8655C54.8651 33.4101 50.6664 39.3389 46.9108 47.6519C49.6537 45.8796 52.5231 43.5165 55.5191 40.5626C58.5152 37.6088 60.6884 34.8659 62.0387 32.3341Z" fill="#17223B"/>
</svg>
