<svg width="1815" height="747" viewBox="0 0 1815 747" fill="none" xmlns="http://www.w3.org/2000/svg">
<path d="M199.568 15.2H455.568V467.808H560.016V596.832H455.568V732H320.4V596.832H0.912003V410.464L199.568 15.2ZM117.648 449.376V467.808H320.4V82.784H301.968L117.648 449.376ZM816.328 373.6C816.328 350.389 824.861 330.251 841.928 313.184C858.995 296.117 879.133 287.584 902.344 287.584C925.555 287.584 945.693 296.117 962.76 313.184C979.827 330.251 988.36 350.389 988.36 373.6C988.36 396.811 979.827 416.949 962.76 434.016C945.693 451.083 925.555 459.616 902.344 459.616C879.133 459.616 858.995 451.083 841.928 434.016C824.861 416.949 816.328 396.811 816.328 373.6ZM638.152 293.728C638.152 200.885 661.363 128.864 707.784 77.6639C754.888 26.4639 819.741 0.863953 902.344 0.863953C984.947 0.863953 1049.46 26.4639 1095.88 77.6639C1142.98 128.864 1166.54 200.885 1166.54 293.728V453.472C1166.54 549.045 1142.98 621.749 1095.88 671.584C1049.46 721.419 984.947 746.336 902.344 746.336C819.741 746.336 754.888 721.419 707.784 671.584C661.363 621.749 638.152 549.045 638.152 453.472V293.728ZM902.344 623.456C926.92 623.456 947.4 619.701 963.784 612.192C980.168 604 993.48 592.736 1003.72 578.4C1013.96 564.064 1021.13 546.997 1025.22 527.2C1029.32 507.403 1031.37 485.557 1031.37 461.664V285.536C1031.37 263.008 1028.98 241.845 1024.2 222.048C1019.42 202.251 1011.91 185.184 1001.67 170.848C991.432 156.512 978.12 145.248 961.736 137.056C945.352 128.181 925.555 123.744 902.344 123.744C879.133 123.744 859.336 128.181 842.952 137.056C826.568 145.248 813.256 156.512 803.016 170.848C792.776 185.184 785.267 202.251 780.488 222.048C775.709 241.845 773.32 263.008 773.32 285.536V461.664C773.32 485.557 775.368 507.403 779.464 527.2C783.56 546.997 790.728 564.064 800.968 578.4C811.208 592.736 824.52 604 840.904 612.192C857.288 619.701 877.768 623.456 902.344 623.456ZM1453.57 15.2H1709.57V467.808H1814.02V596.832H1709.57V732H1574.4V596.832H1254.91V410.464L1453.57 15.2ZM1371.65 449.376V467.808H1574.4V82.784H1555.97L1371.65 449.376Z" fill="black"/>
</svg>
