<svg width="797" height="329" viewBox="0 0 797 329" fill="none" xmlns="http://www.w3.org/2000/svg">
<path d="M87.4 6.99998H199.9V205.9H245.8V262.6H199.9V322H140.5V262.6H0.100001V180.7L87.4 6.99998ZM51.4 197.8V205.9H140.5V36.7H132.4L51.4 197.8ZM358.437 164.5C358.437 154.3 362.187 145.45 369.687 137.95C377.187 130.45 386.037 126.7 396.237 126.7C406.437 126.7 415.287 130.45 422.787 137.95C430.287 145.45 434.037 154.3 434.037 164.5C434.037 174.7 430.287 183.55 422.787 191.05C415.287 198.55 406.437 202.3 396.237 202.3C386.037 202.3 377.187 198.55 369.687 191.05C362.187 183.55 358.437 174.7 358.437 164.5ZM280.137 129.4C280.137 88.6 290.337 56.95 310.737 34.45C331.437 11.95 359.937 0.699979 396.237 0.699979C432.537 0.699979 460.887 11.95 481.287 34.45C501.987 56.95 512.337 88.6 512.337 129.4V199.6C512.337 241.6 501.987 273.55 481.287 295.45C460.887 317.35 432.537 328.3 396.237 328.3C359.937 328.3 331.437 317.35 310.737 295.45C290.337 273.55 280.137 241.6 280.137 199.6V129.4ZM396.237 274.3C407.037 274.3 416.037 272.65 423.237 269.35C430.437 265.75 436.287 260.8 440.787 254.5C445.287 248.2 448.437 240.7 450.237 232C452.037 223.3 452.937 213.7 452.937 203.2V125.8C452.937 115.9 451.887 106.6 449.787 97.9C447.687 89.2 444.387 81.7 439.887 75.4C435.387 69.1 429.537 64.15 422.337 60.55C415.137 56.65 406.437 54.7 396.237 54.7C386.037 54.7 377.337 56.65 370.137 60.55C362.937 64.15 357.087 69.1 352.587 75.4C348.087 81.7 344.787 89.2 342.687 97.9C340.587 106.6 339.537 115.9 339.537 125.8V203.2C339.537 213.7 340.437 223.3 342.237 232C344.037 240.7 347.187 248.2 351.687 254.5C356.187 260.8 362.037 265.75 369.237 269.35C376.437 272.65 385.437 274.3 396.237 274.3ZM638.474 6.99998H750.974V205.9H796.874V262.6H750.974V322H691.574V262.6H551.174V180.7L638.474 6.99998ZM602.474 197.8V205.9H691.574V36.7H683.474L602.474 197.8Z" fill="black"/>
</svg>
